HIERARCHY
ROOT Model_Hips
{
	OFFSET 0.000000 96.915077 0.000000
	CHANNELS 6 Xposition Yposition Zposition Xrotation Yrotation Zrotation
	JOINT Model_Spine
	{
		OFFSET 0.000000 11.137703 -1.289900
		CHANNELS 3 Xrotation Yrotation Zrotation
		JOINT Model_Spine1
		{
			OFFSET 0.000000 12.993942 -1.504922
			CHANNELS 3 Xrotation Yrotation Zrotation
			JOINT Model_Spine2
			{
				OFFSET 0.000000 14.850220 -1.719911
				CHANNELS 3 Xrotation Yrotation Zrotation
				JOINT Model_Neck
				{
					OFFSET 0.000000 16.706543 -1.934903
					CHANNELS 3 Xrotation Yrotation Zrotation
					JOINT Model_Head
					{
						OFFSET 0.000000 10.471298 2.002100
						CHANNELS 3 Xrotation Yrotation Zrotation
						JOINT Model_HeadTop_End
						{
							OFFSET 0.000000 20.842606 3.985100
							CHANNELS 3 Xrotation Yrotation Zrotation
							End Site
							{
								OFFSET 0.000000 21.220154 0.000000
							}
						}
					}
				}
				JOINT Model_LeftShoulder
				{
					OFFSET 7.008500 14.768600 -1.919946
					CHANNELS 3 Xrotation Yrotation Zrotation
					JOINT Model_LeftArm
					{
						OFFSET 14.126271 -3.718048 0.029937
						CHANNELS 3 Xrotation Yrotation Zrotation
						JOINT Model_LeftForeArm
						{
							OFFSET 28.282801 0.000000 0.000000
							CHANNELS 3 Xrotation Yrotation Zrotation
							JOINT Model_LeftHand
							{
								OFFSET 26.204689 0.000000 0.000000
								CHANNELS 3 Xrotation Yrotation Zrotation
								End Site
								{
									OFFSET 26.204704 0.000000 0.000000
								}
							}
						}
					}
				}
				JOINT Model_RightShoulder
				{
					OFFSET -7.008500 14.768555 -1.949840
					CHANNELS 3 Xrotation Yrotation Zrotation
					JOINT Model_RightArm
					{
						OFFSET -14.126281 -3.718018 -0.029932
						CHANNELS 3 Xrotation Yrotation Zrotation
						JOINT Model_RightForeArm
						{
							OFFSET -28.283798 0.000000 -0.000001
							CHANNELS 3 Xrotation Yrotation Zrotation
							JOINT Model_RightHand
							{
								OFFSET -26.204193 0.000000 -0.000001
								CHANNELS 3 Xrotation Yrotation Zrotation
								End Site
								{
									OFFSET -26.204208 0.000000 -0.000001
								}
							}
						}
					}
				}
			}
		}
	}
	JOINT Model_LeftUpLeg
	{
		OFFSET 8.327700 -6.193199 -0.402800
		CHANNELS 3 Xrotation Yrotation Zrotation
		JOINT Model_LeftLeg
		{
			OFFSET 0.735802 -42.108742 -0.610721
			CHANNELS 3 Xrotation Yrotation Zrotation
			JOINT Model_LeftFoot
			{
				OFFSET -0.735806 -36.833748 -0.172876
				CHANNELS 3 Xrotation Yrotation Zrotation
				JOINT Model_LeftToeBase
				{
					OFFSET -0.565857 -11.977769 16.297714
					CHANNELS 3 Xrotation Yrotation Zrotation
					JOINT Model_LeftToe_End
					{
						OFFSET -0.111712 -0.312793 7.857784
						CHANNELS 3 Xrotation Yrotation Zrotation
						End Site
						{
							OFFSET -0.111712 -0.312793 7.857784
						}
					}
				}
			}
		}
	}
	JOINT Model_RightUpLeg
	{
		OFFSET -8.327700 -6.193199 -0.516500
		CHANNELS 3 Xrotation Yrotation Zrotation
		JOINT Model_RightLeg
		{
			OFFSET -0.735785 -42.108738 -0.434061
			CHANNELS 3 Xrotation Yrotation Zrotation
			JOINT Model_RightFoot
			{
				OFFSET 0.735776 -36.833748 -0.021630
				CHANNELS 3 Xrotation Yrotation Zrotation
				JOINT Model_RightToeBase
				{
					OFFSET 0.565817 -11.977745 15.903093
					CHANNELS 3 Xrotation Yrotation Zrotation
					JOINT Model_RightToe_End
					{
						OFFSET 0.111702 -0.312791 7.811342
						CHANNELS 3 Xrotation Yrotation Zrotation
						End Site
						{
							OFFSET 0.111702 -0.312791 7.811342
						}
					}
				}
			}
		}
	}
}
MOTION
Frames: 9
Frame Time: 0.033333
-7.018136 96.668549 21.610609 -143.249298 -83.743208 -146.341475 3.047194 3.157556 4.420647 1.096501 0.659968 2.795312 1.095764 0.696325 2.802674 8.341223 -9.776078 -1.844141 7.879974 -10.106423 -0.887324 0.000003 0.000001 -0.000000 1.630144 -10.041357 -9.686595 -9.956860 10.562294 -74.069058 -0.000010 -8.761001 -0.000007 -0.000000 -0.000001 -0.000001 2.564730 9.899158 10.783433 6.773858 22.022830 53.023148 0.000017 20.036918 -0.000003 -0.000000 -0.000001 -0.000000 -5.694146 2.140620 -4.030743 22.927174 -9.876629 8.970914 -11.881691 11.177261 2.848169 -5.553994 -0.000008 -0.000001 0.000001 0.000000 -0.000000 -26.199955 -45.328639 -28.842468 27.187165 -9.798308 1.450743 -15.238386 12.659990 18.173607 -4.273591 0.000022 0.000005 0.000001 -0.000003 -0.000002 
-6.681510 96.795441 20.868195 -158.386090 -79.802592 -161.606756 2.983438 2.987041 4.462535 1.081238 0.637456 2.818348 1.080309 0.675155 2.825407 8.071592 -9.436810 -2.006519 7.627431 -9.763799 -1.022818 0.000000 0.000000 0.000000 1.313746 -10.718198 -10.518732 -11.663278 11.004240 -71.876546 -0.000010 -8.513648 -0.000001 -0.000000 -0.000001 -0.000001 2.418955 10.178638 11.339688 7.393460 21.123627 53.071748 0.000024 19.379939 -0.000024 0.000002 0.000001 -0.000002 -5.255165 1.563431 -3.802122 22.156785 -9.869603 9.333131 -11.430374 16.178133 2.092810 -5.633681 0.000019 -0.000006 -0.000000 0.000000 -0.000000 -28.323365 -47.187899 -30.695615 29.750477 -7.903559 2.294191 -15.698575 11.862922 13.199948 -6.256201 0.000001 -0.000001 0.000001 0.000002 0.000001 
-6.282788 96.846809 19.960028 -164.828830 -75.570060 -168.184092 2.933379 2.911691 4.541024 1.072509 0.618704 2.846989 1.071331 0.657733 2.853765 7.731456 -9.143794 -2.234914 7.324557 -9.468396 -1.188595 0.000000 -0.000000 -0.000000 1.022452 -11.152514 -11.559924 -11.837251 9.028260 -70.411273 0.000005 -8.127178 -0.000003 -0.000001 -0.000001 -0.000000 2.315781 10.401434 11.692504 7.953649 20.360256 53.452958 0.000024 18.529822 -0.000015 -0.000002 -0.000001 -0.000000 -5.057020 0.528813 -3.418861 21.857447 -9.863973 9.498677 -11.112159 21.934451 1.247936 -5.625134 0.000004 -0.000004 0.000000 -0.000001 -0.000000 -29.125009 -48.492024 -31.190144 31.406347 -5.100972 2.580307 -14.953716 7.521741 7.089403 -8.389178 0.000008 0.000006 -0.000000 0.000002 0.000000 
-5.800284 96.820015 19.021841 -168.281928 -71.269991 -171.781238 2.898595 2.908084 4.601595 1.066688 0.616297 2.880736 1.065287 0.659025 2.886496 7.361065 -8.911169 -2.488213 6.995855 -9.234125 -1.351181 -0.000000 0.000000 -0.000001 0.757844 -11.346799 -12.724647 -11.216598 5.663049 -69.246350 -0.000011 -7.776964 0.000007 0.000001 0.000000 0.000000 2.245654 10.582506 11.888229 8.491692 19.741414 54.093189 0.000004 17.534894 -0.000007 -0.000000 0.000000 0.000000 -5.082567 -0.795411 -2.812696 21.881163 -9.803251 9.148590 -11.037260 27.936146 0.654648 -5.360357 -0.000003 0.000002 0.000000 -0.000000 -0.000000 -27.718631 -49.496397 -29.681195 30.600685 -0.574855 2.451086 -13.513801 -0.771683 2.761158 -9.393793 -0.000004 0.000000 -0.000002 -0.000000 0.000000 
-5.228035 96.729187 18.029800 -170.403179 -66.972190 -174.062030 2.862836 2.935389 4.609788 1.052279 0.627742 2.913771 1.050901 0.671182 2.919460 6.993700 -8.701591 -2.702935 6.666247 -9.023332 -1.474170 0.000000 -0.000002 0.000001 0.543889 -11.362399 -13.780531 -10.065844 1.518965 -68.337450 -0.000009 -7.576494 -0.000014 -0.000001 0.000001 0.000000 2.196579 10.736236 11.978120 9.031074 19.269048 54.913532 0.000007 16.439611 0.000002 -0.000002 0.000001 -0.000001 -5.287089 -2.169916 -1.881679 22.316651 -6.935366 8.179266 -11.326621 29.855399 -0.254655 -4.723290 -0.000002 0.000000 0.000001 -0.000001 -0.000000 -24.142588 -49.933310 -26.362165 27.907945 4.264080 2.042929 -11.781602 -11.326955 0.929302 -9.247494 -0.000002 0.000000 0.000001 -0.000000 0.000000 
-4.542600 96.595444 16.888659 -171.823148 -62.711252 -175.666960 2.796317 2.952573 4.571064 1.017778 0.640910 2.940012 1.016537 0.683144 2.946189 6.646766 -8.509238 -2.844653 6.354700 -8.829394 -1.530623 0.000001 0.000000 -0.000000 0.439844 -11.294057 -14.326332 -8.497711 -3.038250 -67.910488 -0.000008 -7.524687 -0.000001 -0.000004 -0.000001 0.000000 2.146546 10.887826 12.040999 9.597252 18.925165 55.806706 0.000012 15.285383 -0.000016 -0.000001 -0.000000 0.000001 -5.788971 -3.451037 -0.675693 23.634113 -4.458729 6.829487 -12.186009 29.834119 -0.474910 -3.813222 -0.000005 0.000002 0.000001 -0.000000 -0.000000 -19.126218 -49.581327 -21.692001 24.337977 5.226092 1.419209 -9.512768 -19.219903 1.330203 -8.711701 -0.000001 -0.000000 -0.000001 0.000000 0.000000 
-3.723296 96.433624 15.562454 -172.830410 -58.509354 -176.895971 2.676867 2.931257 4.513447 0.960849 0.643603 2.954152 0.959651 0.685346 2.960529 6.323289 -8.307075 -2.886824 6.066974 -8.624192 -1.514794 0.000001 -0.000001 0.000000 0.373268 -11.272608 -14.636472 -6.635362 -7.626207 -67.630990 -0.000012 -7.525916 0.000007 0.000002 -0.000000 0.000001 2.085771 11.058759 12.102440 10.189115 18.699770 56.718468 0.000009 14.109404 0.000006 -0.000000 -0.000000 0.000000 -6.616957 -4.676850 0.561758 25.996441 -4.168240 5.546688 -13.781694 29.546142 0.772570 -3.169170 0.000025 0.000005 -0.000000 0.000002 -0.000000 -13.543549 -48.425273 -16.409260 20.410866 -0.984694 0.656613 -6.599086 -19.649944 3.486869 -8.828512 0.000006 0.000003 0.000000 0.000000 0.000000 
-2.759253 96.255363 14.117441 -173.574627 -54.376919 -177.850258 2.517838 2.859000 4.395592 0.892841 0.629294 2.950343 0.891558 0.670941 2.956681 6.016343 -8.054367 -2.815596 5.802461 -8.365244 -1.433108 -0.000000 -0.000002 0.000001 0.330446 -11.345341 -14.772038 -4.663685 -11.895430 -67.418270 0.000009 -7.471000 -0.000008 0.000002 0.000001 0.000000 2.003421 11.263419 12.204870 10.813691 18.560674 57.582709 0.000005 12.943605 -0.000000 -0.000000 0.000000 0.000001 -7.817996 -6.052483 1.726514 29.401560 -4.367073 4.721443 -14.833533 29.642109 1.126700 -3.792462 0.000011 -0.000003 -0.000000 0.000003 -0.000000 -8.796016 -46.491038 -11.580730 16.865788 -6.144224 -0.227788 -4.240289 -19.380961 5.088058 -10.169691 0.000004 0.000001 -0.000000 0.000001 0.000000 
-1.667948 96.084679 12.681519 -174.140987 -50.322932 -178.597945 2.368628 2.733483 4.188415 0.835552 0.597654 2.922606 0.834046 0.639854 2.928593 5.715762 -7.728497 -2.643294 5.557047 -8.028502 -1.300379 -0.000000 -0.000001 -0.000000 0.312481 -11.501775 -14.800106 -2.777830 -15.645911 -67.177977 -0.000009 -7.321424 0.000007 0.000000 0.000000 0.000001 1.886408 11.503195 12.428228 11.476718 18.450197 58.294148 0.000010 11.824856 0.000011 -0.000001 -0.000000 -0.000000 -9.021853 -7.620337 2.763067 33.017674 -4.617204 4.330223 -14.887214 29.770302 0.078922 -6.303066 -0.000000 0.000003 0.000001 -0.000002 -0.000000 -6.622557 -43.762934 -8.334473 15.898881 -5.945210 -1.182576 -3.880586 -21.803274 5.510079 -9.846887 0.000006 0.000003 0.000001 -0.000000 0.000000 
